<svg xmlns="http://www.w3.org/2000/svg" width="1200" height="630" viewBox="0 0 1200 630">
  <rect width="1200" height="630" fill="#071321"/>
  <path d="M0 126h1200M0 252h1200M0 378h1200M0 504h1200M240 0v630M480 0v630M720 0v630M960 0v630" stroke="#22B8CF" stroke-opacity=".13"/>
  <rect x="84" y="92" width="1032" height="446" rx="24" fill="#101E2E" stroke="#22B8CF" stroke-opacity=".28"/>
  <text x="128" y="190" fill="#16C784" font-family="Arial, sans-serif" font-size="40" font-weight="700">CFO Control AI</text>
  <text x="128" y="276" fill="#FFFFFF" font-family="Arial, sans-serif" font-size="58" font-weight="700">Финансы под контролем</text>
  <text x="128" y="338" fill="#CBD5E1" font-family="Arial, sans-serif" font-size="32">Банк + 1С + документы → прогноз → действия</text>
  <rect x="128" y="398" width="230" height="62" rx="10" fill="#16C784"/>
  <text x="158" y="438" fill="#071321" font-family="Arial, sans-serif" font-size="24" font-weight="700">13 недель cash flow</text>
  <path d="M650 430c70-120 126 40 198-62 46-66 88-18 142-104" fill="none" stroke="#22B8CF" stroke-width="10" stroke-linecap="round"/>
  <path d="M650 474c70-80 126 32 198-34 46-42 88-10 142-74" fill="none" stroke="#16C784" stroke-width="10" stroke-linecap="round"/>
</svg>
